<?xml version="1.0" encoding="UTF-8"?>
<svg id="Layer_1" data-name="Layer 1" xmlns="http://www.w3.org/2000/svg" viewBox="0 0 452.06 452.01">
  <path d="M116.29,27.94l13.12-5.57,27.8,17.88-10.68-25.15,13.24-5.62,19.31,45.46-13.24,5.62-27.63-17.73,10.6,24.96-13.21,5.61-19.31-45.46Z"/>
  <path d="M178.81,5.69l15.06-2.67,8.63,48.63-15.06,2.67-8.63-48.63Z"/>
  <path d="M213.2,0l15.25,.72-.88,18.64L244.41,1.47l20.28,.96-18.88,17.77,17.36,31.6-18.77-.88-9.45-20.78-8.27,7.88-.57,12.04-15.25-.72L213.2,0Z"/>
  <path d="M281.03,6.72l38.65,13.39-3.45,9.96-24.2-8.38-2.57,7.42,22.44,7.77-3.3,9.52-22.44-7.77-3.19,9.2,24.9,8.62-3.66,10.57-39.35-13.63,16.17-46.67Z"/>
  <path d="M315.2,58.56l12.66,7.38-6.93,11.87-12.66-7.38,6.93-11.87Z"/>
  <path d="M375.11,57.17l11.58,9.99-17.52,20.33c-3.68,4.27-6.86,7.19-9.53,8.76-2.68,1.58-5.83,2.15-9.45,1.72-3.62-.42-7.22-2.18-10.79-5.26-3.78-3.26-6.26-6.29-7.46-9.1-1.2-2.81-1.51-5.68-.95-8.62,.56-2.94,1.99-5.94,4.28-9.01l12.35,8.02c-1.41,1.67-2.32,3.01-2.73,4.05-.42,1.03-.52,2.08-.29,3.13,.16,.71,.65,1.41,1.47,2.11,1.29,1.11,2.66,1.45,4.09,1.01s3.13-1.8,5.09-4.08l19.87-23.05Z"/>
  <path d="M418.71,108.94l8.41,12.7-24.53,16.25c-2.43,1.61-4.98,2.75-7.64,3.43-2.66,.67-5.34,.74-8.03,.19-2.69-.55-4.95-1.49-6.79-2.84-2.55-1.86-4.98-4.53-7.27-7.99-1.33-2-2.64-4.28-3.92-6.84-1.29-2.56-2.04-4.9-2.27-7.05s0-4.38,.66-6.72c.66-2.34,1.64-4.29,2.95-5.85,2.1-2.52,4.16-4.45,6.18-5.79l24.53-16.25,8.41,12.7-25.12,16.64c-2.25,1.49-3.59,3.27-4.02,5.35-.44,2.08,.08,4.23,1.54,6.44,1.45,2.19,3.21,3.5,5.28,3.92,2.07,.42,4.25-.12,6.53-1.64l25.12-16.64Z"/>
  <path d="M403.3,148.13l5.14,13.61c-2.16,.99-3.69,2.13-4.59,3.42-1.45,2.09-1.74,4.53-.89,7.32,.64,2.08,1.62,3.54,2.95,4.36,1.32,.83,2.63,1.04,3.92,.65,1.22-.38,2.15-1.25,2.79-2.62,.64-1.37,.78-4.14,.44-8.31-.53-6.84-.02-11.99,1.52-15.45,1.54-3.48,4.15-5.79,7.85-6.92,2.43-.75,4.93-.75,7.52,0,2.59,.74,4.94,2.34,7.04,4.78,2.1,2.44,3.91,6.12,5.42,11.04,1.85,6.03,2.15,10.98,.88,14.83-1.27,3.86-4.26,6.84-8.97,8.94l-5.03-13.5c2.01-1.02,3.32-2.26,3.93-3.73,.61-1.47,.59-3.23-.04-5.29-.52-1.7-1.27-2.86-2.26-3.5s-1.99-.8-3.02-.48c-.75,.23-1.32,.79-1.7,1.69-.41,.88-.49,2.69-.23,5.43,.59,6.8,.6,11.79,.04,14.99-.56,3.19-1.69,5.73-3.38,7.63-1.7,1.9-3.83,3.24-6.41,4.03-3.03,.93-6.08,.95-9.14,.06-3.07-.89-5.73-2.63-7.97-5.23-2.24-2.6-4.07-6.19-5.47-10.76-2.47-8.03-2.63-14.07-.49-18.11,2.14-4.04,5.53-7,10.17-8.87Z"/>
  <path d="M450.54,195.42l1.52,46.37-12.19,.4-.51-15.56-37.17,1.22-.5-15.25,37.17-1.22-.51-15.56,12.19-.4Z"/>
  <path d="M444.35,286.5l-8.09,21.18c-1.59,4.17-3.45,7.33-5.56,9.47-2.11,2.14-4.55,3.64-7.31,4.51-2.76,.87-5.69,1.14-8.79,.83s-6.22-1.08-9.37-2.28c-4.93-1.88-8.54-3.91-10.83-6.07-2.29-2.16-3.97-4.59-5.04-7.28-1.07-2.7-1.48-5.3-1.21-7.82,.35-3.45,1.02-6.44,1.99-8.98l8.09-21.18,46.14,17.62Zm-15.89,10.27l-25.21-9.63-1.33,3.49c-1.14,2.98-1.62,5.23-1.44,6.74,.18,1.51,.96,2.94,2.33,4.28,1.38,1.34,3.91,2.72,7.6,4.13,4.89,1.87,8.54,2.35,10.95,1.44,2.41-.91,4.33-3.21,5.74-6.9l1.36-3.56Z"/>
  <path d="M400.22,329.17c6.36,4.95,9.94,10.58,10.73,16.88,.79,6.3-1.28,12.62-6.21,18.95-5.05,6.49-10.68,10.13-16.89,10.93-6.21,.8-12.46-1.24-18.74-6.12-4.56-3.54-7.7-7.22-9.42-11.02-1.72-3.8-2.27-7.78-1.64-11.94,.63-4.16,2.63-8.4,6-12.73,3.42-4.4,6.95-7.49,10.59-9.28s7.68-2.4,12.1-1.83c4.42,.57,8.91,2.62,13.47,6.17Zm-9.42,12c-3.94-3.06-7.33-4.53-10.19-4.41-2.86,.12-5.27,1.45-7.22,3.96-2.01,2.59-2.73,5.25-2.15,7.97,.58,2.73,3.05,5.79,7.41,9.18,3.67,2.85,6.93,4.2,9.77,4.04,2.84-.16,5.25-1.51,7.23-4.05,1.89-2.43,2.55-5.05,1.97-7.86-.58-2.81-2.85-5.76-6.82-8.85Z"/>
  <path d="M352.98,412.68l-12.93,8.18-26.41-41.74,12.93-8.18,26.41,41.74Z"/>
  <path d="M327.12,429.1l-43.43,16.31-4.29-11.42,14.57-5.47-13.08-34.82,14.29-5.37,13.08,34.82,14.57-5.47,4.29,11.42Z"/>
  <path d="M274.86,409.8l-14.3,3.21-3.01-13.41,14.3-3.21,3.01,13.41Z"/>
  <path d="M251.74,451.25l-14.25,.23-19.04-27.02,.44,27.32-14.38,.23-.8-49.38,14.38-.23,18.93,26.82-.44-27.12,14.35-.23,.8,49.38Z"/>
  <path d="M185.08,448.06l-14.94-3.28,10.6-48.24,14.94,3.28-10.6,48.24Z"/>
  <path d="M150.99,440.15l-13.79-6.53,7.99-16.87-22.44,10.02-18.34-8.69,24.27-9.13-3.86-35.85,16.99,8.05,.72,22.81,10.66-4.09,5.16-10.89,13.79,6.53-21.14,44.64Z"/>
  <path d="M91.03,407.83l-30.54-27.2,7.01-7.87,19.12,17.03,5.22-5.86-17.74-15.8,6.7-7.52,17.74,15.8,6.48-7.27-19.67-17.52,7.44-8.35,31.1,27.7-32.85,36.88Z"/>
  <path d="M31.61,342.74l-6.44-13.83,16.92-7.88-23.67-6.61-8.57-18.4,24.51,8.47,19.92-30.05,7.94,17.04-14.02,18.02,10.82,3.66,10.93-5.09,6.44,13.83-44.77,20.85Z"/>
  <path d="M30.96,279.95c-7.98,1.13-14.51-.21-19.59-4.03-5.08-3.82-8.18-9.7-9.3-17.64-1.15-8.14,.15-14.72,3.89-19.74,3.75-5.02,9.56-8.09,17.43-9.21,5.72-.81,10.54-.51,14.47,.9,3.93,1.41,7.17,3.78,9.72,7.13,2.55,3.35,4.21,7.74,4.98,13.16,.78,5.52,.55,10.2-.7,14.07-1.25,3.86-3.61,7.19-7.1,9.97-3.48,2.79-8.08,4.58-13.8,5.39Zm-2.07-15.12c4.94-.7,8.35-2.12,10.25-4.26,1.9-2.14,2.62-4.79,2.18-7.95-.46-3.25-1.87-5.61-4.24-7.09-2.36-1.48-6.28-1.83-11.75-1.06-4.6,.65-7.84,2.06-9.7,4.21-1.86,2.16-2.57,4.83-2.12,8.01,.43,3.05,1.86,5.34,4.27,6.88,2.42,1.54,6.12,1.96,11.1,1.25Z"/>
  <path d="M48.81,220.54L0,213.01l3.88-25.14c.72-4.66,1.67-8.16,2.85-10.5s2.97-4.1,5.36-5.28c2.4-1.17,5.15-1.52,8.26-1.04,2.71,.42,4.96,1.36,6.74,2.81s3.13,3.29,4.04,5.5c.58,1.41,.95,3.27,1.11,5.6,.88-1.7,1.68-2.92,2.4-3.65,.49-.49,1.46-1.16,2.94-2.02,1.47-.85,2.59-1.4,3.36-1.64l15.27-5.12-2.63,17.04-16.16,5.76c-2.09,.72-3.48,1.44-4.18,2.15-.92,.97-1.49,2.15-1.7,3.52l-.21,1.33,19.81,3.06-2.34,15.15Zm-26.7-19.63l.98-6.36c.11-.69,.09-2.05-.05-4.1-.05-1.03-.43-1.92-1.15-2.68-.72-.76-1.62-1.22-2.68-1.39-1.58-.24-2.86,.07-3.86,.94-1,.87-1.71,2.68-2.13,5.43l-1.02,6.63,9.92,1.53Z"/>
  <path d="M12.8,150.42l17.06-37.18,9.58,4.4-10.68,23.27,7.14,3.27,9.9-21.59,9.16,4.2-9.9,21.59,8.85,4.06,10.99-23.95,10.17,4.66-17.37,37.85-44.89-20.6Z"/>
  <path d="M91.37,100.35l-11.24,13.19,4.65,7.12-10.11,11.86-25.56-46.16,10.8-12.67,49.63,17.9-10.36,12.17-7.81-3.41Zm-10.18-4.52l-17.05-7.37,10.02,15.62,7.03-8.26Z"/>
  <path d="M103.68,81.04l11.56-9.01,8.45,10.84-11.56,9.01-8.45-10.84Z"/>
</svg>