<?xml version="1.0" encoding="UTF-8"?>
<svg id="Layer_1" data-name="Layer 1" xmlns="http://www.w3.org/2000/svg" viewBox="0 0 1073.01 564.87">
  <path d="M135.74,201.18s-61.11,116.31,0,171.91c0,0,23.9,29.94,90.37,25.84,20.56-1.27,37.22-4.24,55.81-7.14,28.68-4.47,79.86-18.99,149.95-38.31,494.49-136.31,634.5-175.8,641.14-175.8,0,0-550.89,252.88-740.79,332.79,0,0-176.74,86.49-271.69,41.36,0,0-99.65-34.78-43.24-169.22,0,0,52.64-109.99,118.45-181.44Z"/>
  <g>
    <polygon points="253.25 0 143.26 292.37 212.89 292.37 259.83 166.4 253.93 292.37 328.13 292.37 437.26 0 368.29 0 320.47 128.32 326.39 0 253.25 0"/>
    <polygon points="446.93 0 515.02 0 404.96 292.37 337.73 292.37 446.93 0"/>
    <path d="M827.65,47.94L844.21,0h-208.33l-70.52,85.55L596.38,0h-70.21l-107.93,292.37h67.83l46.85-122.68,3.58,122.68h215.08l14.59-57.35h-76.71l24.93-70.51h68.14l19.39-55.47h-66.39l21.62-61.11h70.51Zm-222.33,220.45l-4.7-150.41L702.14,8.93l-96.83,259.46Z"/>
  </g>
</svg>