<?xml version="1.0" encoding="UTF-8"?>
<svg id="Layer_1" data-name="Layer 1" xmlns="http://www.w3.org/2000/svg" viewBox="0 0 59.02 58.67">
  <path d="M58.29,54.4l-10.81-10.81c2.34-2.88,4.11-6.24,5.1-9.93,2.46-9.2-.19-19.1-6.93-25.83C38.92,1.1,29.03-1.56,19.82,.9,10.62,3.37,3.37,10.61,.91,19.81c-2.47,9.19,.18,19.1,6.92,25.85,5.07,5.07,11.93,7.83,18.95,7.83,2.3,0,4.62-.3,6.89-.91,3.86-1.04,7.36-2.92,10.32-5.42l10.77,10.77c.49,.49,1.13,.73,1.77,.73s1.28-.24,1.77-.73c.98-.98,.98-2.56,0-3.54Zm-25.92-6.65c-7.49,2-15.54-.15-21-5.63-5.48-5.49-7.63-13.54-5.63-21.01,0,0,0,0,0,0,2-7.48,7.89-13.37,15.37-15.37,1.85-.5,3.73-.74,5.6-.74,5.7,0,11.28,2.24,15.4,6.37,5.48,5.48,7.63,13.53,5.63,21.01-2,7.47-7.9,13.37-15.38,15.38Z"/>
</svg>