<?xml version="1.0" encoding="UTF-8"?>
<svg id="Layer_1" data-name="Layer 1" xmlns="http://www.w3.org/2000/svg" viewBox="0 0 60.27 65">
  <path d="M60.22,59.54l-5.33-35.5c-.35-2.31-2.37-4.05-4.7-4.05h-5.56v-5.5c0-8-6.5-14.5-14.5-14.5S15.64,6.5,15.64,14.5v5.5h-5.56c-2.37,0-4.35,1.7-4.7,4.04h0S.05,59.54,.05,59.54c-.21,1.37,.19,2.76,1.1,3.8s2.21,1.65,3.6,1.65H55.52c1.38,0,2.7-.6,3.6-1.65s1.3-2.44,1.1-3.8ZM20.64,14.5c0-5.24,4.26-9.5,9.5-9.5s9.5,4.26,9.5,9.5v5.5H20.64v-5.5ZM5.04,60L10.29,25h5.35v5.5c0,1.38,1.12,2.5,2.5,2.5s2.5-1.12,2.5-2.5v-5.5h19v5.5c0,1.38,1.12,2.5,2.5,2.5s2.5-1.12,2.5-2.5v-5.5h5.35l5.25,35H5.04Z"/>
</svg>