<?xml version="1.0" encoding="UTF-8"?>
<svg id="Layer_1" data-name="Layer 1" xmlns="http://www.w3.org/2000/svg" viewBox="0 0 1033.52 268.65">
  <defs>
    <style>
      .cls-1 {
        fill: #ffdb00;
        stroke: #202020;
        stroke-miterlimit: 10;
        stroke-width: 5px;
      }
    </style>
  </defs>
  <path class="cls-1" d="M740.25,82.56c-30.76,8.48-53.22,14.85-65.8,16.81-8.16,1.27-15.47,2.58-24.49,3.13-29.17,1.8-39.66-11.34-39.66-11.34-26.81-24.4,0-75.43,0-75.43-20.62,22.39-38.29,53.4-46.71,69.3v-.67c0-8.57-2.66-17.01-7.96-23.75-20.16-25.66-66.25-22.07-66.25-22.07-40.2,.99-60.79,25.43-60.79,25.43v-22.21h-44v21.78c-18.51-23.75-43.08-25.61-60.5-22.5-28,5-40.5,27.5-40.5,27.5-17.5-32.5-60-30-60-30-47.5,.5-59,21-59,21l2.97-16h-43.6l-35.37,107L52.28,43.54H3.59L60.09,196.04c7,25-12,26-12,26H18.09v38H60.09c28,0,42-33,42-33l34-96c14,81,74,78,74,78,54,4,75.75-31.51,75.75-31.51,20.75,25.49,50.25,23.51,50.25,23.51,37,0,50-24,50-24,4,66-37,60-37,60-31-1-30-23-30-23h-45c7,57,79,52,79,52,71,1,76-68,76-68,20,11,39,11,39,11,37,1,56.49-22,56.49-22v16.47h43.51c-4.5-8.03-4.5-23.05-4.5-23.05v-19.92c6.78,6.64,13.71,9.06,13.71,9.06,41.66,19.8,119.22-18.15,119.22-18.15C779.85,116.38,1021.59,10.41,1021.59,10.41c-2.91,0-64.35,12.33-281.34,72.14ZM219.59,175.04c-21.26,0-38.5-22.73-38.5-52s17.24-50,38.5-50,38.5,20.73,38.5,50-17.24,52-38.5,52Zm130-8.5c-19.33,0-35-20.83-35-47.67s15.67-45.83,35-45.83,35,19,35,45.83-15.67,47.67-35,47.67Zm78.5-41.39v-33.11h35c2-23,25-24,25-24,30-3,32,17,32,17,1,23-27.63,23.55-27.63,23.55-39.37,1.45-64.37,16.56-64.37,16.56Zm59,54.89s-26,2-29-23c0,0-3-19,23-22,0,0,18-2,39.03-5.89v19.53s.97,31.36-33.03,31.36Z"/>
</svg>